<svg width="40" height="40" viewBox="0 0 40 40" fill="none" xmlns="http://www.w3.org/2000/svg">
<path d="M20.0027 0C8.95564 0 0 8.95443 0 20C0 31.0456 8.95564 40 20.0027 40C20.6053 40 21.2057 39.973 21.8031 39.9193C22.3585 39.8695 22.909 39.7933 23.4553 39.6979L23.6653 39.6608C33.822 37.7656 40.8643 28.4482 39.9143 18.1611C38.9643 7.87402 30.3348 0.00325521 20.0027 0ZM18.3957 38.596H18.3485C17.8299 38.5501 17.3152 38.4808 16.805 38.3919C16.7757 38.3867 16.7464 38.3835 16.7178 38.3779C16.219 38.2887 15.7254 38.1781 15.2368 38.0488L15.1186 38.0186C14.642 37.8893 14.1705 37.7393 13.706 37.5726C13.6578 37.5553 13.6093 37.54 13.5611 37.5221C13.1056 37.3548 12.6583 37.1673 12.2178 36.9645C12.1631 36.9401 12.1084 36.9167 12.0537 36.8906C11.6217 36.6908 11.1981 36.4655 10.7827 36.2285C10.7241 36.1953 10.6649 36.1621 10.6063 36.1292C10.1973 35.8906 9.79788 35.6348 9.4059 35.3646C9.34664 35.3232 9.28674 35.2832 9.22781 35.2419C8.84267 34.9688 8.46729 34.6787 8.10168 34.3753L8.00108 34.2874V28.6667C8.00597 24.6185 11.2867 21.3382 15.3354 21.3333H24.67C28.7187 21.3382 31.9994 24.6185 32.0043 28.6667V34.2881L31.9158 34.362C31.543 34.6732 31.1605 34.9674 30.7675 35.2454C30.7154 35.2819 30.6627 35.3167 30.6109 35.3525C30.2144 35.6279 29.8081 35.887 29.392 36.1305C29.3399 36.1608 29.2865 36.1895 29.2348 36.2194C28.8131 36.4593 28.3844 36.6859 27.9471 36.89C27.897 36.9134 27.8465 36.9352 27.7958 36.9567C27.3517 37.1615 26.9004 37.3499 26.4417 37.5186C26.3962 37.5355 26.3502 37.5501 26.3082 37.5661C25.8414 37.7334 25.368 37.8848 24.8888 38.0146L24.7739 38.0433C24.2845 38.1725 23.7907 38.2839 23.2912 38.3734C23.2626 38.3786 23.2339 38.3822 23.2053 38.3867C22.6945 38.4759 22.1791 38.5452 21.6602 38.5915H21.613C21.0797 38.6374 20.5461 38.6621 20.006 38.6621C19.4659 38.6621 18.928 38.6419 18.3957 38.596ZM33.3378 33.0521V28.6667C33.3323 23.8825 29.4548 20.0055 24.67 20H15.3354C10.5506 20.0055 6.6731 23.8825 6.66757 28.6667V33.0514C-0.513741 25.723 -0.433652 13.9733 6.84663 6.74316C14.1269 -0.486654 25.8785 -0.486654 33.1588 6.74316C40.4391 13.9733 40.5192 25.7236 33.3378 33.0521Z" fill="#FDCA74"/>
<path d="M8.00051 28.6667V34.2874L6.66699 33.0514V28.6667C6.67253 23.8825 10.55 20.0055 15.3348 20H24.6694C29.4543 20.0055 33.3317 23.8825 33.3373 28.6667V33.0521L32.0038 34.2881V28.6667C31.9989 24.6185 28.7182 21.3382 24.6694 21.3333H15.3348C11.2861 21.3382 8.00539 24.6185 8.00051 28.6667Z" fill="#FA9EB0"/>
<path d="M20.0025 5.33333C16.3201 5.33333 13.335 8.31803 13.335 12C13.335 15.682 16.3201 18.6667 20.0025 18.6667C23.685 18.6667 26.6701 15.682 26.6701 12C26.6662 8.31966 23.6834 5.33724 20.0025 5.33333ZM20.0025 17.3333C17.0565 17.3333 14.6685 14.9456 14.6685 12C14.6685 9.05436 17.0565 6.66667 20.0025 6.66667C22.9486 6.66667 25.3366 9.05436 25.3366 12C25.3333 14.944 22.9469 17.3301 20.0025 17.3333Z" fill="#FA9EB0"/>
</svg>
